<?xml version="1.0" encoding="utf-8"?><svg xmlns="http://www.w3.org/2000/svg" xmlns:xlink="http://www.w3.org/1999/xlink"><symbol viewBox="0 0 276.865 302.891" id="icons--section_1--scales" xmlns="http://www.w3.org/2000/svg"><path d="M136.439 298.248c-2.331-5.636-7.518-11.574-11.578-13.256-2.793-1.157-3.148-1.045-5.212 1.633-7.46 9.683-15.651 13.827-27.27 13.8-6.68-.016-8.843-.457-13.119-2.673-18.683-9.684-19.779-35.953-1.9-45.561 4.467-2.401 15.102-2.232 19.414.309 5.625 3.315 9.325 8.729 9.875 14.45.594 6.175-.921 10.098-5.427 14.055-4.663 4.094-11.203 4.259-14.27.36-5.43-6.903 1.311-16.451 9.435-13.362 3.69 1.402 3.99.846 1.908-3.54-4.653-9.806-17.56-9.846-24.853-.078-1.645 2.203-2.062 4.248-2.062 10.102 0 6.543.326 7.804 3 11.6 4.37 6.204 10.128 8.915 18.907 8.903 31.054-.043 38.994-41.115 11.643-60.223-5.627-3.931-6.035-4.845-1-2.241l2.95 1.525v-5.917c0-5.589.15-5.955 2.689-6.592 6.73-1.69 11.31-7.943 11.31-15.443V202h13.228l-.596-4.25c-.328-2.337-1.96-17.525-3.628-33.75-3.091-30.089-4.635-43.362-5.608-48.233l-.547-2.734-13.674 7.016c-11.262 5.78-15.04 7.219-21.424 8.163-4.263.63-7.75 1.566-7.75 2.078 0 .887 23.4 46.176 26.053 50.423 1.73 2.772.766 4.68-4.17 8.257-6.066 4.394-12.822 6.115-23.943 6.097-11.012-.017-21.032-2.59-25.84-6.637-4.189-3.524-4.583-5.63-1.818-9.703 1.294-1.908 7.6-13.81 14.011-26.447l11.658-22.978-2.476-2.325c-2.838-2.667-3.2-6.498-.918-9.754 1.887-2.695 6.404-2.95 10.042-.566 3.798 2.488 10.546.516 24.323-7.11 14.074-7.79 17.755-8.86 30.578-8.883 12.636-.023 17.976 1.55 31.5 9.282 12.514 7.154 19.62 9.188 23.415 6.702 3.32-2.176 7.872-2.093 9.93.18 2.276 2.516 2.1 7.46-.345 9.672-1.1.995-2 2.463-2 3.26 0 1.744 21.376 44.04 24.826 49.126 2.198 3.238 2.294 3.81 1.024 6.072-1.94 3.458-7.213 6.8-13.697 8.686-8.139 2.366-26.862 1.523-33.653-1.515-5.296-2.369-10.5-6.69-10.5-8.72 0-.67 1.616-4.073 3.592-7.563 5.934-10.482 23.408-44.453 23.408-45.507 0-.54-3.488-1.522-7.75-2.184-7.633-1.185-11.942-2.938-27.25-11.083-7.422-3.949-7.507-3.967-8.197-1.781-.384 1.215-2.533 19.309-4.776 40.209-2.243 20.9-4.343 39.913-4.666 42.25l-.588 4.25h13.227v4.04c0 7.378 4.756 13.857 11.396 15.523 2.438.612 2.604 1.03 2.604 6.571v5.917l2.95-1.525c5.034-2.604 4.627-1.69-1 2.24-10.827 7.564-16.494 18.37-16.383 31.234.078 9.04 2.756 15.96 8.245 21.308 11.432 11.138 30.4 10.582 38.633-1.133 4.155-5.912 4.806-15.177 1.482-21.091-3.893-6.926-13.291-10.016-19.967-6.563-2.655 1.373-7.722 9.05-6.669 10.104.238.237 1.678-.043 3.202-.622 8.303-3.157 15.594 7.808 9.192 13.823-6.986 6.563-19.727-1.553-19.663-12.526.086-14.9 16.762-23.768 30.935-16.453 8.205 4.236 13.235 15.872 11.058 25.584-3.212 14.333-12.927 21.956-28.015 21.984-11.182.021-20.157-4.84-27.307-14.788-2.834-3.944-11.488 2.462-15.626 11.568l-2.588 5.696-1.92-4.643zm5.15-20.498c2.476-2.709 4.75-7.171 5.732-11.249.656-2.723.84-2.838 2-1.25.704.962 1.504 1.749 1.78 1.749.274 0 .76-2.528 1.079-5.617.73-7.071 4.483-14.813 10.338-21.325l4.547-5.058h-57.37l4.745 5.25c5.814 6.432 9.673 14.525 10.252 21.5.472 5.683 1.293 6.526 2.922 3 1.018-2.204 1.054-2.188 1.725.75 1.238 5.414 3.867 10.611 6.36 12.573 3.089 2.43 3.388 2.413 5.89-.323zM90.636 158.497c-6.181-12.377-11.645-22.367-12.141-22.202-.497.166-6.052 10.292-12.345 22.503L54.708 181h47.166l-11.238-22.503zm120.029.321c-6.258-12.2-11.81-22.326-12.34-22.503-.53-.176-6.02 9.805-12.201 22.182L174.886 181h47.156l-11.377-22.182zm-98.285 92.635c-6.572-5.422-20.78-11.304-38.5-15.938-25.894-6.772-29.4-8.737-47.128-26.423C5.954 188.344 1.225 180.327.17 164.028c-.765-11.812 1.053-21.481 5.836-31.037 6.42-12.828 16.428-22.222 34.22-32.122 10.216-5.684 15.912-11.764 18.244-19.472 2.28-7.54 3.077-8.4 4.453-4.81 2.29 5.975-.22 13.037-8.092 22.767-3.884 4.8-4.87 6.843-5.418 11.235-.915 7.324-5.738 16.614-10.642 20.498-2.195 1.738-6.555 3.967-9.69 4.953l-5.7 1.792 4 1.677c5.314 2.228 9.5 6.306 9.5 9.255 0 2.301-1.202 3.728-9.348 11.097-4.579 4.142-6.443 7.642-7.703 14.46-3.217 17.399 11.4 40.305 32.177 50.424 4.606 2.243 13.528 5.49 19.827 7.214 19.373 5.306 35.925 12.975 41.971 19.446 3.035 3.248 2.477 3.267-1.424.048zM12.775 183.91c-2.423-7.784-2.619-26.712-.367-35.359 2.166-8.312 7.549-18.037 15.41-27.834 9.663-12.044 9.478-12.504-.8-1.998-7.453 7.617-9.858 10.904-13.83 18.905l-4.808 9.684-.354 12.402c-.195 6.822.124 14.303.709 16.626C9.795 180.547 13.66 190 14.322 190c.191 0-.505-2.74-1.547-6.09zm149.959 67.765c5.052-6.088 21.78-13.87 42.646-19.84 18.635-5.332 25.989-9.275 36.02-19.311 16.19-16.197 20.508-34.628 11.457-48.9-1.613-2.544-3.28-4.625-3.705-4.625-.425 0-2.685-1.748-5.022-3.884-2.767-2.53-4.25-4.733-4.25-6.313 0-2.994 4.16-7.06 9.5-9.283l4-1.665-6.153-2.036c-3.385-1.12-7.752-3.353-9.705-4.963-4.352-3.587-9.29-13.564-10.162-20.533-.535-4.275-1.596-6.364-6.094-12-6.13-7.681-8.703-14.488-7.744-20.489.342-2.133.978-4.1 1.415-4.37.437-.27 1.795 2.678 3.017 6.55 3.09 9.792 7.28 14.17 21.603 22.564 25.21 14.777 37.26 32.875 37.308 56.036.037 17.513-4.216 26.735-20.62 44.713-18.827 20.634-25.812 24.914-51.481 31.546-17.102 4.419-28.39 8.82-37.373 14.573-3.294 2.11-5.39 3.113-4.657 2.23zm103.072-69.095c5.655-15.407 4.83-30.447-2.489-45.36-3.755-7.653-6.142-10.897-13.614-18.5-9.82-9.994-9.823-9.312-.017 2.777 7.101 8.754 12.502 18.747 14.707 27.213 2.232 8.57 1.99 27.493-.451 35.338-2.377 7.637-1.113 6.641 1.864-1.468zM35.719 209.257c-3.013-3.166-6.798-8.007-8.41-10.757-2.655-4.531-2.928-5.843-2.92-14 .008-7.812.36-9.66 2.668-14 1.462-2.75 4.833-7.099 7.49-9.664C39.108 156.435 48.833 150 50.925 150c1.39 0 1.09 6.878-.493 11.316-1.771 4.966-4.156 7.561-8.94 9.727l-3.89 1.761 3.14 1.624c4.084 2.112 4.102 5.283.05 9.135-7.116 6.765-7.805 13.658-2.403 24.023 1.93 3.702 3.352 6.888 3.16 7.08-.192.192-2.815-2.242-5.829-5.409zm-4.944-14.838c-2.082-11.203.66-21.667 7.974-30.419 5.83-6.978 5.852-8.098.038-2-7.257 7.612-10.309 14.57-10.308 23.5 0 6.39 1.926 16.308 2.964 15.27.237-.237-.063-3.095-.668-6.35zm204.138 20.473c-.018-.334 1.542-3.63 3.467-7.323 2.755-5.285 3.5-7.879 3.5-12.185 0-5.103-.301-5.792-4.5-10.28-5.354-5.725-5.715-8.424-1.422-10.644l3.078-1.592-4.32-2.184c-2.376-1.201-5.307-3.67-6.512-5.484-2.069-3.114-4.209-13.649-3.015-14.842 1.133-1.133 13.363 6.298 17.828 10.833 6.53 6.633 9.117 12.493 9.66 21.88.388 6.686.113 8.445-2.06 13.191-2.105 4.6-15.596 20.603-15.704 18.63zm12.931-28.675c.043-11.04-1.875-15.764-9.885-24.352-6.06-6.499-6.73-5.893-.912.824 6.539 7.549 9.27 14.393 9.305 23.311.015 4.125-.3 9.075-.7 11-.712 3.428-.697 3.448.715 1 .964-1.671 1.454-5.576 1.477-11.783zM57.363 108.973c-.654-1.059.424-3.04 6.618-12.167 5.597-8.247 7.252-13.624 6.676-21.68-.904-12.63-7.337-20.156-17.175-20.094-2.806.017-5.798.58-6.648 1.25-2.37 1.868-4.954 5.969-4.954 7.864 0 1.307.703.997 3.04-1.34 2.54-2.54 3.56-2.936 6.202-2.408 7.298 1.46 10.121 8.743 5.48 14.139-2.619 3.044-8.01 3.718-12.125 1.515-5.706-3.054-7.099-12.73-2.718-18.882 7.113-9.99 24.604-7.08 30.533 5.079 6.856 14.057 3.896 31.502-7.425 43.765-3.628 3.93-6.262 4.969-7.504 2.959zm154.453-3.166c-2.108-2.306-5.319-7.12-7.134-10.698-5.922-11.665-4.888-27.76 2.343-36.488 8.073-9.746 22.168-10.052 28.605-.622 6.588 9.652-2.14 22.79-12.315 18.538-5.78-2.415-7.173-8.405-3.065-13.181 3.115-3.622 8.474-3.79 12.103-.382 4.166 3.915 3.24-.462-.995-4.696-3.33-3.33-3.818-3.497-8.928-3.074-7.38.612-11.744 4.027-14.476 11.328-3.835 10.249-2.147 20.704 4.918 30.468 5.323 7.357 7.213 10.86 6.49 12.03-1.218 1.97-3.812.861-7.546-3.223zm-81.013-11.73c-3.21-3.21-3.805-6.525-1.341-7.47 2.053-.788 15.783-.788 17.836 0 2.464.945 1.869 4.26-1.341 7.47C143.564 96.47 142.19 97 138.38 97s-5.184-.53-7.577-2.923zm-.999-14.497c5.16-5.491 10.724-5.692 16.334-.588l3.242 2.95-10.924.029L127.53 82l2.273-2.42zm-28.54-.889c5.917-3.742 11.632-9.046 14.353-13.321 10.94-17.185 6.76-37.458-9.73-47.192-3.791-2.239-5.66-2.65-12-2.641-6.11.008-8.336.471-11.963 2.487-6.447 3.583-10.314 9.562-10.834 16.753-.525 7.256 1.35 12.024 6.18 15.707 3.722 2.839 10.344 3.756 15.334 2.125 2.39-.781 5.592-4.75 6.69-8.291.652-2.1.473-2.162-4.7-1.628-4.989.515-5.533.356-7.545-2.202-6.013-7.645.83-16.624 10.289-13.502 7.69 2.538 11.494 12.613 8.108 21.48-6.138 16.073-29.505 16.478-37.772.654-2.302-4.407-2.792-6.604-2.785-12.484.008-6.1.448-7.9 3.029-12.4C75.857 10.393 92.856 6.073 107.88 14.08c4.154 2.214 7.555 4.99 9.912 8.088 1.973 2.594 4.115 4.743 4.76 4.774 2.823.137 9.959-6.814 12.973-12.638l3.16-6.104 1.59 4.162c2.067 5.414 6.501 10.728 10.951 13.124l3.552 1.913 2.268-2.95c6.773-8.807 14.234-13.189 24.01-14.102 12.536-1.17 22.424 3.996 28.308 14.793 6.079 11.152 2.631 25.73-7.59 32.096-13.851 8.627-31.85.017-31.85-15.237 0-7.799 6.529-15.986 12.756-15.996 3.043-.005 7.8 2.513 8.579 4.54 1.826 4.76-.48 10.818-4.714 12.384-1.167.432-3.636.367-5.487-.144-1.851-.512-3.587-.709-3.857-.438-.972.971 2.904 7.571 5.41 9.213 5.8 3.8 15.944 1.45 20.579-4.768 2.493-3.345 3.376-12.182 1.719-17.204-5.092-15.427-26.316-19.227-39.78-7.122-6.797 6.112-9.622 12.706-9.654 22.535-.043 12.976 5.754 24.082 16.149 30.938 6.889 4.545 5.867 5.274-1.331.95-9.304-5.587-16.592-16.198-17.928-26.1-.892-6.607-1.34-7.366-3.01-5.098-1.454 1.976-1.684 1.668-2.89-3.861-.659-3.017-6.567-11.205-8.085-11.205-1.518 0-7.426 8.188-8.084 11.205-1.21 5.547-1.437 5.836-2.96 3.768-1.621-2.203-1.932-1.632-2.918 5.36-.812 5.765-3.673 12.163-7.725 17.278-3.144 3.97-14.025 11.824-16.218 11.706-.602-.032-.247-.595.789-1.25zm20.303-58.337c-1.373-1.374-.66-3.496 1.063-3.164.962.186 1.75.969 1.75 1.74 0 1.58-1.764 2.472-2.813 1.424zm30.846-.301c-.88-1.423.242-3.053 2.1-3.053.875 0 1.377.703 1.19 1.667-.39 2.009-2.386 2.85-3.29 1.386zm-35.379-7.49c.19-.918.796-1.645 1.346-1.616 1.484.079 1.212 2.316-.346 2.835-.84.28-1.216-.177-1-1.22zM157.38 13c-.816-1.32.38-3.192 1.569-2.457 1.215.75 1.207 3.457-.01 3.457-.518 0-1.22-.45-1.56-1zm-45.86-4.694C110.392 7.18 110.833 6 112.38 6c.825 0 1.5.423 1.5.941 0 1.261-1.562 2.164-2.36 1.365zm52 0C162.392 7.18 162.833 6 164.38 6c.825 0 1.5.423 1.5.941 0 1.261-1.562 2.164-2.36 1.365zM104.88 3.5c0-.825.45-1.5 1-1.5s1 .675 1 1.5-.45 1.5-1 1.5-1-.675-1-1.5zm65 0c0-.825.45-1.5 1-1.5s1 .675 1 1.5-.45 1.5-1 1.5-1-.675-1-1.5zm-72-1.941c0-.857.45-1.559 1-1.559s1 .423 1 .941-.45 1.22-1 1.559c-.55.34-1-.084-1-.941zm79.543.51c-.317-.512-.118-1.213.44-1.559.56-.345 1.017.074 1.017.931 0 1.757-.6 2.015-1.457.628zM89.88 1c0-.55.45-1 1-1s1 .45 1 1-.45 1-1 1-1-.45-1-1zm95 0c0-.55.45-1 1-1s1 .45 1 1-.45 1-1 1-1-.45-1-1z"/></symbol><symbol viewBox="0 0 446.182 503.881" id="icons--section_2--1" xmlns="http://www.w3.org/2000/svg"><path d="M223.084 502.803c-6.299-1.477-15.823-6.622-21.577-11.655-16.22-14.188-21.447-36.29-12.847-54.314 4.267-8.942 11.026-17.345 17.223-21.411 2.515-1.65 4.582-3.346 4.594-3.769.076-2.636-25.407-99.37-26.334-99.966-.629-.404-3.26-.742-5.845-.75-12.294-.04-28.63-6.884-40.414-16.93l-7.114-6.066-28.886 17.484L73 322.911l-.572 8.782c-.48 7.378-1.1 9.774-3.882 14.993-3.915 7.344-10.702 14.005-18.163 17.824-4.516 2.311-6.67 2.762-13.383 2.796-11.058.057-17.072-2.167-24.529-9.07-3.976-3.682-7.014-7.687-9.203-12.134C.4 340.278-.001 338.482 0 331.444c0-6.625.471-9.025 2.703-13.79 3.405-7.268 12.117-16.073 19.037-19.241 11.172-5.115 21.759-4.281 33.19 2.614l6.504 3.922 22.783-13.833c38.476-23.362 35.494-21.245 34.799-24.693-.333-1.65-.861-8.672-1.175-15.604-.459-10.159-.239-13.746 1.134-18.5 2.568-8.89 7.947-18.374 15.27-26.923l6.581-7.681-3.163-6.415c-4.26-8.638-4.177-12.28.371-16.274 6.235-5.474 13.396-3.12 17.97 5.908 1.417 2.795 3.272 5.35 4.122 5.675.85.327 3.996.045 6.991-.625 6.962-1.558 19.452-1.563 25.882-.01 2.75.664 8.79 2.955 13.42 5.092l8.42 3.886 2.445-2.265c9.455-8.756 110.684-117.411 110.564-118.675-.084-.874-1.397-4.514-2.919-8.09-5.626-13.215-4.216-29.88 3.535-41.778 12.161-18.67 33.712-28.028 52.104-22.626 13.872 4.075 26.576 14.845 33.07 28.034 3.225 6.553 3.361 7.294 3.361 18.35 0 9.59-.384 12.533-2.293 17.561-6.633 17.47-24.27 30.207-43.235 31.225-7.465.4-9.46.12-16-2.257-4.11-1.494-8.597-2.926-9.972-3.183-2.212-.413-8.376 5.787-53.542 53.854-28.074 29.876-53.24 56.701-55.924 59.61l-4.882 5.29 4.615 9.21c2.538 5.066 5.143 11.985 5.788 15.376 1.134 5.963.797 23.386-.608 31.422-.604 3.453-.435 3.712 4.482 6.867 6.739 4.324 9.071 7.43 9.071 12.077 0 3.054-.665 4.345-3.535 6.865-4.575 4.017-7.68 3.962-15.678-.28l-6.379-3.385-5.993 5.145c-3.296 2.83-8.338 6.65-11.204 8.488-3.731 2.395-5.187 3.953-5.126 5.49.047 1.18 5.56 23.742 12.25 50.138l12.165 47.993 8.112 1.673c18.632 3.843 32.775 15.717 39.138 32.86 6.256 16.853 2.413 33.351-11.107 47.683-12.47 13.218-28.65 18.793-44.058 15.18zm20.305-22.342c6.218-2.193 10.722-6.118 13.561-11.816 3.413-6.848 3.654-19.809.49-26.343-6.245-12.902-22.789-17.802-38.002-11.258-8.271 3.558-12.58 10.339-13.623 21.437-.857 9.118 1.607 16.462 7.493 22.337 2.58 2.575 6.266 5.18 8.191 5.791 5.12 1.623 17.101 1.542 21.89-.148zM43.465 345.171c10.93-5.514 9.596-24.903-1.952-28.362-5.154-1.545-13.816.21-16.818 3.405-4.397 4.68-4.726 17.217-.575 21.874 4.281 4.803 13.138 6.214 19.345 3.083zm146.803-56.756c13.279-3.13 21.714-9.958 27.567-22.313 3.005-6.344 3.164-7.281 3.164-18.68 0-10.822-.254-12.54-2.586-17.5-3.308-7.035-11.372-15.846-17.574-19.204-11.287-6.11-27.576-6.31-39.675-.49-8.945 4.304-15.05 10.3-19.03 18.695-2.674 5.638-3.133 7.846-3.469 16.66-.294 7.728.027 11.439 1.34 15.5 6.913 21.382 27.657 32.662 50.263 27.332zm192.954-215.6c4.842-2.344 8.778-6.62 11.41-12.392 2.313-5.075 2.455-16.418.285-22.786-2.027-5.95-8.182-12.105-14.132-14.133-5.456-1.859-15.94-2.065-21.427-.42-5.068 1.517-11.39 7.006-14.051 12.196-2.58 5.031-3.584 16.76-1.879 21.927 2.613 7.917 10.8 15.877 18.307 17.797 5.081 1.3 16.731.113 21.487-2.19zm18 341.747c-6.58-1.851-15.2-8.032-19.919-14.282-5.492-7.276-7.804-13.894-7.804-22.348v-6.969l-3.972-2.026c-2.185-1.115-5.56-3.42-7.5-5.124-2.979-2.616-3.528-3.747-3.528-7.272 0-5.096 2.14-8.361 6.74-10.283 3.335-1.394 3.788-1.307 10.973 2.105 4.122 1.958 7.943 3.56 8.49 3.56.548 0 3.539-1.562 6.646-3.47 7.918-4.863 16.23-6.841 23.213-5.525 12.013 2.264 23.361 11.245 28.736 22.742 3.975 8.503 3.838 18.357-.38 27.255-7.749 16.352-26.288 25.972-41.695 21.637zm19.276-24.138c6.418-6.15 5.935-17.726-1.001-24.004-1.784-1.614-3.614-1.997-9.537-1.997-6.687 0-7.589.248-10.29 2.835-5.284 5.063-6.49 15.337-2.521 21.495 2.324 3.607 7.031 5.24 14.083 4.888 5.289-.264 6.692-.751 9.266-3.217zm-102.999-51.617c-15.551-8.475-36.601-21.338-39.25-23.983-4.191-4.187-3.877-9.704.785-13.798 4.125-3.622 6.325-3.802 12.465-1.022 9.212 4.172 38.514 21.544 42.19 25.014 5.186 4.893 5.319 9.596.41 14.505-4.483 4.483-7.281 4.362-16.6-.716zM122.918 157.954c-3.073-1.243-6.662-5.916-12.51-16.285-8.22-14.577-13.909-26.846-13.909-30 0-4.397 4.825-8.746 9.7-8.746 5.346 0 7.44 1.794 13.146 11.266 10.442 17.336 16.154 29.436 16.154 34.223 0 4.125-.344 4.747-4.15 7.504-4.403 3.19-5.142 3.368-8.431 2.038zM81.712 86.448c-1.618-1.36-4.213-4.904-5.768-7.874l-2.827-5.4-6.784-.63c-3.73-.347-9.285-1.567-12.343-2.71-7.689-2.878-16.55-11.254-20.594-19.47-2.98-6.054-3.116-6.84-2.703-15.658.529-11.263 2.49-15.628 10.726-23.863C50.196 2.066 53.986.466 66 .469c9.044.001 10.52.273 15.453 2.848 6.73 3.511 14.989 11.817 18.162 18.263 2.01 4.082 2.382 6.334 2.37 14.343-.014 8.466-.325 10.098-2.858 15-1.564 3.025-3.936 6.666-5.272 8.092l-2.428 2.593 3.536 7.379c1.945 4.059 3.536 8.202 3.536 9.207 0 3.14-2.908 7.63-5.967 9.212-4.193 2.168-7.447 1.88-10.82-.958zm-7.213-37.277c9.655-4.823 9.328-22.706-.49-26.809-7.123-2.976-16.754-1.048-20.074 4.018-4.341 6.626-3.339 16.665 2.145 21.48 3.023 2.653 4.253 3.062 9.204 3.061 3.437 0 7.11-.698 9.215-1.75z"/></symbol><symbol viewBox="0 0 281.498 284.546" id="icons--section_3--folder" xmlns="http://www.w3.org/2000/svg"><path d="M0 146.546v-138h79v276H0v-138zm45.328 105.957c4.857-3.82 4.12-13.04-1.273-15.927-8.435-4.515-17.65 4.886-13.107 13.373 2.53 4.726 9.944 6.043 14.38 2.554zm20.374-89.153L69 160.154V54.7l-2.486-2.955-2.486-2.954-17.327-.722c-21.893-.912-29.796-.155-33.834 3.243l-2.991 2.517.312 53.824c.346 59.656-.065 56.237 6.951 57.895 1.849.436 12.79.84 24.313.896l20.953.102 3.297-3.196zM20 127.046v-4.5h39v9H20v-4.5zm0-20v-4.5h39v9H20v-4.5zm0-19.5v-5h39v10H20v-5zm63 59v-138h79v276H83v-138zm45.505 105.586c3.153-3.153 4.022-6.899 2.47-10.645-3.42-8.258-14.757-7.905-17.975.56-.893 2.349-.304 5.722 1.5 8.588 2.792 4.435 10.268 5.234 14.005 1.497zm20.197-88.782l3.298-3.196V54.7l-2.486-2.955-2.486-2.954-17.327-.722c-21.88-.912-29.797-.154-33.827 3.237l-2.984 2.51.305 53.83c.338 59.665-.072 56.244 6.944 57.902 1.849.436 12.79.84 24.313.896l20.953.102 3.297-3.196zM103 127.046v-4.5h39v9h-39v-4.5zm0-20v-4.5h39v9h-39v-4.5zm0-19.5v-5h39v10h-39v-5zm100.51 194.696c-.982-3.039-37.556-270.983-37.057-271.482.685-.685 76.834-11.26 77.352-10.742.587.587 38.133 271.923 37.69 272.367-.222.222-16.287 2.577-35.7 5.233-19.412 2.656-36.781 5.053-38.597 5.325-2.069.31-3.447.048-3.689-.701zm37.93-34.673c3.29-1.25 6.06-6.896 5.154-10.503-1.107-4.413-4.96-7.52-9.326-7.52-4.619 0-7.568 1.896-9.243 5.941-3.412 8.236 4.586 15.439 13.415 12.082zm-12.94-86.583l20-2.564 3.236-3.688c2.919-3.326 3.178-4.128 2.644-8.188-.326-2.475-3.582-26.05-7.236-52.39L240.5 46.263 237 43.5l-3.5-2.765-18.5 2.372c-23.535 3.017-27.097 3.887-30.512 7.452l-2.75 2.87 7.136 50.31c3.925 27.669 7.612 52.02 8.193 54.113 1.816 6.534 3.558 6.708 31.433 3.134zm-26-32.835c-.18-.608-.57-2.523-.869-4.257-.456-2.654-.193-3.235 1.663-3.67 4.348-1.02 35.76-4.956 36.183-4.534.237.237.72 2.233 1.072 4.435l.64 4.003-9.845 1.254c-5.414.69-14.046 1.844-19.181 2.564-6.732.945-9.428 1.002-9.664.205zm-2.873-20.135c-.345-.898-.627-2.896-.627-4.44 0-3.255-1.294-2.897 21.905-6.05 16.912-2.3 17.05-2.27 17.08 3.611l.015 3.091-16.25 2.214c-8.938 1.218-17.43 2.438-18.873 2.711-1.829.346-2.813.002-3.25-1.137zM196.44 86c-.375-2.5-.515-4.7-.311-4.886.495-.455 38.099-5.686 38.382-5.34.598.733 1.158 9.772.605 9.772-.35 0-8.508 1.12-18.127 2.487-9.62 1.367-18.025 2.492-18.679 2.5-.654.007-1.495-2.032-1.87-4.533z"/></symbol><symbol viewBox="0 0 583.855 220.062" id="icons--section_4--1" xmlns="http://www.w3.org/2000/svg"><path d="M396.722 218.812c.288-.688 21.68-50.075 47.538-109.75L491.275.562 503.967.28l12.69-.28-.496 2.28c-.38 1.744-60.628 141.453-89.926 208.532l-4.04 9.25h-12.998c-10.01 0-12.878-.288-12.475-1.25zM47.665 216.01c-5.637-.503-14.412-1.787-19.5-2.853-8.552-1.792-24.38-6.953-27.65-9.015-1.147-.724-.534-3.365 3.42-14.732 2.65-7.617 4.912-13.982 5.027-14.145.115-.163 5.394 1.088 11.732 2.78 16.634 4.439 26.805 6.015 38.719 6 28.313-.037 43.455-11.22 44.778-33.07 1.01-16.66-6.312-28.13-21.685-33.97-12.44-4.728-27.149-4.34-42.634 1.127l-8.515 3.005-10.56-5.757-10.56-5.756.56-5.032c.308-2.767 1.95-23.481 3.647-46.031 1.697-22.55 3.293-42.013 3.546-43.25l.461-2.25h118.962v49h-33v-21H52.504l-.51 3.25c-.28 1.787-.985 10.225-1.566 18.75-.582 8.525-1.307 17.58-1.613 20.123l-.555 4.623 5.327-1.538c3.826-1.104 9.973-1.54 21.826-1.544 13.872-.006 17.765.34 24.442 2.172 24.966 6.852 41.24 23 46.047 45.692 1.881 8.884 1.89 22.983.02 31.972-1.982 9.522-8.573 22.257-14.959 28.903-9.76 10.158-24.228 17.602-40.877 21.033-9.817 2.023-29.023 2.708-42.421 1.513zm175.248-1.456c-34.33-7.038-53.894-30.22-60.003-71.096-1.933-12.934-2.22-41.89-.54-54.397 3.446-25.662 13.93-48.622 27.962-61.238 6.351-5.71 18.415-12.007 28.638-14.947 6.796-1.955 10.254-2.285 23.943-2.281 18.832.004 24.292 1.155 38.432 8.1 13.877 6.817 22.048 15.276 29.454 30.493 9.61 19.747 12.599 34.923 12.608 64.023.007 22.141-2.04 36.3-7.426 51.372-9.228 25.817-26.433 42.683-50.068 49.082-8.392 2.272-33.703 2.795-43 .89zm33.936-32.918c16.475-8.06 23.558-28.682 23.554-68.575-.003-27.033-2.15-40.308-8.656-53.5-10.863-22.028-39.721-24.688-54.524-5.027-10.014 13.301-14.547 39.782-12.697 74.168 1.803 33.524 10.968 50.642 29.621 55.33 6.581 1.653 16.582.598 22.702-2.396zm257.827 31.91c-18.813-4.087-31.775-18.727-35.894-40.54-2.315-12.26-1.48-35.806 1.613-45.445 3.264-10.173 6.564-16.14 12.255-22.157 9.678-10.233 24.201-15.02 42.666-14.063 25.715 1.334 39.8 12.701 46.737 37.72 1.41 5.088 1.802 10.193 1.802 23.5 0 18.71-1.082 24.692-6.55 36.198-6.092 12.822-18.936 22.736-32.779 25.303-7.411 1.374-22.339 1.116-29.85-.516zm25.371-23.404c4.27-2.603 7.748-7.506 9.99-14.081 1.554-4.555 1.876-8.508 1.876-23 0-19.04-1.167-25.037-6.177-31.751-8.277-11.092-26.16-8.63-32.314 4.449-7.892 16.775-5.954 52.447 3.322 61.137 5.84 5.47 17.087 7.037 23.303 3.246zM364.824 133.64c-13.98-3.187-25.816-12.58-31.416-24.93-4.786-10.555-6.294-20.61-5.778-38.526.394-13.688.788-16.614 3.182-23.623 3.245-9.503 6.524-15.377 11.75-21.047 12.504-13.565 41.214-18.37 62.072-10.387 12.304 4.708 21.516 15.26 26.395 30.232 2.293 7.035 2.74 10.413 3.143 23.752.361 11.961.093 17.386-1.164 23.5-1.808 8.795-6.998 20.645-11.57 26.419-3.958 4.996-12.156 10.504-19.525 13.116-7.77 2.754-27.987 3.568-37.09 1.494zm23.905-22.7c4.36-2.235 8.732-7.391 10.678-12.594 5.256-14.046 4.615-40.584-1.284-53.166-5.628-12.008-23.145-13.71-32.058-3.117-3.904 4.64-6.7 14.937-7.33 26.998-1.157 22.19 3.647 37.352 13.178 41.588 3.684 1.637 13.847 1.814 16.816.292z"/></symbol><symbol viewBox="0 0 425.319 467.122" id="icons--section_5--1" xmlns="http://www.w3.org/2000/svg"><path d="M297.78 465.142c-17.343-4.984-29.971-17.1-36.21-34.742l-2.79-7.892v-37.5c0-41.003.252-43.368 5.864-55 3.952-8.19 13.944-18.424 22.218-22.754 11.379-5.956 13.957-6.246 55.59-6.246 37.048 0 37.893.045 45.284 2.392 9.366 2.974 15.679 6.971 22.798 14.435 6.565 6.883 11.377 15.942 13.308 25.051 1.761 8.31 2.033 71.523.347 80.689-3.652 19.853-19.56 36.722-39.54 41.925-9.039 2.355-78.424 2.068-86.869-.358zm51.51-23.384c7.02-4.778 7.456-6.13 7.807-24.236l.316-16.347 16.863-.334c18.68-.369 19.956-.772 24.754-7.823 4.518-6.637 2.315-15.94-5.07-21.418-2.55-1.891-4.438-2.124-19.685-2.425l-16.865-.333-.315-16.847c-.285-15.247-.513-17.115-2.407-19.667-7.28-9.814-19.535-9.814-26.816 0-1.894 2.553-2.122 4.42-2.408 19.75l-.315 16.93h-14.967c-16.594 0-19.47.7-24.402 5.943-2.716 2.887-3 3.821-3 9.873 0 7.895 1.807 11.068 8.066 14.17 3.534 1.751 6.042 2.014 19.183 2.014h15.117l.317 16.43c.286 14.821.522 16.707 2.41 19.25 3.55 4.785 8.193 7.32 13.407 7.32 3.233 0 5.739-.704 8.01-2.25zm-212.01-42.774c-43.598-3.273-89.021-11.143-124.46-21.562L0 373.652l.685-13.072c2.05-39.128 11.27-76.038 26.998-108.072 13.522-27.542 27.764-46.687 50.033-67.258l7.936-7.33 8.564 8.458c19.185 18.949 41.621 30.533 67.488 34.846 10.199 1.7 31.42 1.4 41.786-.592 24.384-4.685 46.37-16.278 64.05-33.773l8.825-8.733 6.708 5.775c27.297 23.506 50.12 58.71 63.765 98.357l2.323 6.75H326.18c-27.333 0-34.454 1.125-46.399 7.327-15.122 7.853-26.335 21.89-30.503 38.184-1.752 6.854-1.997 11.095-1.997 34.68 0 20.6-.291 26.973-1.25 27.304-7.026 2.43-85.56 4.222-108.75 2.481zm29.5-200.006c-8.294-1.28-21.731-5.54-29.515-9.357-21.085-10.337-39.324-29.463-48.021-50.356-6.22-14.938-7.352-21.076-7.335-39.757.015-15.596.24-17.743 2.733-26 5.19-17.188 12.385-29.936 23.63-41.866C137.258.884 181.238-8.388 220.537 7.972c25.337 10.547 47.022 34.38 55.538 61.036 3.728 11.67 4.657 18.194 4.56 32-.077 11.055-.555 15.243-2.634 23.12-4.818 18.244-12.054 31.021-25.502 45.024-13.47 14.027-28.33 22.701-47.1 27.494-10.869 2.775-28.759 3.855-38.62 2.332z"/></symbol><symbol viewBox="0 0 190 190" id="icons--section_8--1" xmlns="http://www.w3.org/2000/svg"><path d="M0 95V0h190v190H0V95zm84.714 17.743c3.97-2.683 8.74-9.2 7.822-10.684-1.372-2.22-8.886-1.124-13.436 1.96-4.977 3.372-6.944 3.63-11.133 1.464-7.44-3.847-7.873-15.934-.75-20.922 3.335-2.336 6.982-1.9 11.883 1.42 4.577 3.102 12.067 4.176 13.455 1.93 1.106-1.79-5.036-9.24-9.61-11.659-5.718-3.023-14.614-3.075-20.72-.12-13.915 6.737-14.87 26.409-1.768 36.403 6.206 4.734 17.42 4.83 24.257.208zM23 113c1.958-2.75 2.626-3 8-3 5.374 0 6.042.25 8 3 1.816 2.55 2.792 3 6.51 3 2.404 0 4.637-.429 4.96-.953.325-.524-2.866-9.749-7.09-20.5L35.698 75h-9.372L18.61 94.51c-4.243 10.731-7.44 19.956-7.104 20.5.337.545 2.58.99 4.985.99 3.717 0 4.693-.45 6.509-3zm4.715-12.75c-.22-.412.368-3.225 1.31-6.25l1.711-5.5 1.564 3.555c.86 1.956 1.869 4.768 2.24 6.25.64 2.547.482 2.695-2.873 2.695-1.952 0-3.73-.338-3.952-.75zm101.641 12.739c4.268-2.89 9.133-9.39 8.18-10.93-1.372-2.22-8.886-1.124-13.436 1.96-4.977 3.372-6.944 3.63-11.133 1.464-9.275-4.796-7.085-20.473 3.087-22.095 2.75-.438 4.355.07 7.946 2.513 4.672 3.18 12.147 4.288 13.555 2.01 1.111-1.798-5.044-9.242-9.703-11.735-6.05-3.236-16.79-2.832-22.208.835-7.277 4.926-10.878 13.595-9.251 22.27 1.003 5.347 6.14 12.272 10.894 14.686 5.995 3.043 16.838 2.563 22.069-.978zm20.849.261c1.215-2.542 1.82-2.772 8.006-3.045 6.586-.29 6.717-.245 8.292 2.8 1.516 2.933 1.874 3.08 6.799 2.795 3.997-.23 5.125-.647 4.88-1.8-.174-.825-3.734-10.162-7.912-20.75L162.674 74h-8.504l-8.085 20.347c-4.447 11.191-8.085 20.641-8.085 21 0 .36 2.45.653 5.445.653 4.956 0 5.564-.248 6.76-2.75zM155 99.904c0-.603.742-3.64 1.649-6.75l1.649-5.654 1.869 5.482c1.028 3.015 1.65 6.053 1.382 6.75-.594 1.55-6.549 1.706-6.549.172z"/></symbol></svg>