<?xml version="1.0" encoding="utf-8"?><svg xmlns="http://www.w3.org/2000/svg" xmlns:xlink="http://www.w3.org/1999/xlink"><symbol viewBox="0 0 446.182 503.881" id="icons--section_2--1" xmlns="http://www.w3.org/2000/svg"><path d="M223.084 502.803c-6.299-1.477-15.823-6.622-21.577-11.655-16.22-14.188-21.447-36.29-12.847-54.314 4.267-8.942 11.026-17.345 17.223-21.411 2.515-1.65 4.582-3.346 4.594-3.769.076-2.636-25.407-99.37-26.334-99.966-.629-.404-3.26-.742-5.845-.75-12.294-.04-28.63-6.884-40.414-16.93l-7.114-6.066-28.886 17.484L73 322.911l-.572 8.782c-.48 7.378-1.1 9.774-3.882 14.993-3.915 7.344-10.702 14.005-18.163 17.824-4.516 2.311-6.67 2.762-13.383 2.796-11.058.057-17.072-2.167-24.529-9.07-3.976-3.682-7.014-7.687-9.203-12.134C.4 340.278-.001 338.482 0 331.444c0-6.625.471-9.025 2.703-13.79 3.405-7.268 12.117-16.073 19.037-19.241 11.172-5.115 21.759-4.281 33.19 2.614l6.504 3.922 22.783-13.833c38.476-23.362 35.494-21.245 34.799-24.693-.333-1.65-.861-8.672-1.175-15.604-.459-10.159-.239-13.746 1.134-18.5 2.568-8.89 7.947-18.374 15.27-26.923l6.581-7.681-3.163-6.415c-4.26-8.638-4.177-12.28.371-16.274 6.235-5.474 13.396-3.12 17.97 5.908 1.417 2.795 3.272 5.35 4.122 5.675.85.327 3.996.045 6.991-.625 6.962-1.558 19.452-1.563 25.882-.01 2.75.664 8.79 2.955 13.42 5.092l8.42 3.886 2.445-2.265c9.455-8.756 110.684-117.411 110.564-118.675-.084-.874-1.397-4.514-2.919-8.09-5.626-13.215-4.216-29.88 3.535-41.778 12.161-18.67 33.712-28.028 52.104-22.626 13.872 4.075 26.576 14.845 33.07 28.034 3.225 6.553 3.361 7.294 3.361 18.35 0 9.59-.384 12.533-2.293 17.561-6.633 17.47-24.27 30.207-43.235 31.225-7.465.4-9.46.12-16-2.257-4.11-1.494-8.597-2.926-9.972-3.183-2.212-.413-8.376 5.787-53.542 53.854-28.074 29.876-53.24 56.701-55.924 59.61l-4.882 5.29 4.615 9.21c2.538 5.066 5.143 11.985 5.788 15.376 1.134 5.963.797 23.386-.608 31.422-.604 3.453-.435 3.712 4.482 6.867 6.739 4.324 9.071 7.43 9.071 12.077 0 3.054-.665 4.345-3.535 6.865-4.575 4.017-7.68 3.962-15.678-.28l-6.379-3.385-5.993 5.145c-3.296 2.83-8.338 6.65-11.204 8.488-3.731 2.395-5.187 3.953-5.126 5.49.047 1.18 5.56 23.742 12.25 50.138l12.165 47.993 8.112 1.673c18.632 3.843 32.775 15.717 39.138 32.86 6.256 16.853 2.413 33.351-11.107 47.683-12.47 13.218-28.65 18.793-44.058 15.18zm20.305-22.342c6.218-2.193 10.722-6.118 13.561-11.816 3.413-6.848 3.654-19.809.49-26.343-6.245-12.902-22.789-17.802-38.002-11.258-8.271 3.558-12.58 10.339-13.623 21.437-.857 9.118 1.607 16.462 7.493 22.337 2.58 2.575 6.266 5.18 8.191 5.791 5.12 1.623 17.101 1.542 21.89-.148zM43.465 345.171c10.93-5.514 9.596-24.903-1.952-28.362-5.154-1.545-13.816.21-16.818 3.405-4.397 4.68-4.726 17.217-.575 21.874 4.281 4.803 13.138 6.214 19.345 3.083zm146.803-56.756c13.279-3.13 21.714-9.958 27.567-22.313 3.005-6.344 3.164-7.281 3.164-18.68 0-10.822-.254-12.54-2.586-17.5-3.308-7.035-11.372-15.846-17.574-19.204-11.287-6.11-27.576-6.31-39.675-.49-8.945 4.304-15.05 10.3-19.03 18.695-2.674 5.638-3.133 7.846-3.469 16.66-.294 7.728.027 11.439 1.34 15.5 6.913 21.382 27.657 32.662 50.263 27.332zm192.954-215.6c4.842-2.344 8.778-6.62 11.41-12.392 2.313-5.075 2.455-16.418.285-22.786-2.027-5.95-8.182-12.105-14.132-14.133-5.456-1.859-15.94-2.065-21.427-.42-5.068 1.517-11.39 7.006-14.051 12.196-2.58 5.031-3.584 16.76-1.879 21.927 2.613 7.917 10.8 15.877 18.307 17.797 5.081 1.3 16.731.113 21.487-2.19zm18 341.747c-6.58-1.851-15.2-8.032-19.919-14.282-5.492-7.276-7.804-13.894-7.804-22.348v-6.969l-3.972-2.026c-2.185-1.115-5.56-3.42-7.5-5.124-2.979-2.616-3.528-3.747-3.528-7.272 0-5.096 2.14-8.361 6.74-10.283 3.335-1.394 3.788-1.307 10.973 2.105 4.122 1.958 7.943 3.56 8.49 3.56.548 0 3.539-1.562 6.646-3.47 7.918-4.863 16.23-6.841 23.213-5.525 12.013 2.264 23.361 11.245 28.736 22.742 3.975 8.503 3.838 18.357-.38 27.255-7.749 16.352-26.288 25.972-41.695 21.637zm19.276-24.138c6.418-6.15 5.935-17.726-1.001-24.004-1.784-1.614-3.614-1.997-9.537-1.997-6.687 0-7.589.248-10.29 2.835-5.284 5.063-6.49 15.337-2.521 21.495 2.324 3.607 7.031 5.24 14.083 4.888 5.289-.264 6.692-.751 9.266-3.217zm-102.999-51.617c-15.551-8.475-36.601-21.338-39.25-23.983-4.191-4.187-3.877-9.704.785-13.798 4.125-3.622 6.325-3.802 12.465-1.022 9.212 4.172 38.514 21.544 42.19 25.014 5.186 4.893 5.319 9.596.41 14.505-4.483 4.483-7.281 4.362-16.6-.716zM122.918 157.954c-3.073-1.243-6.662-5.916-12.51-16.285-8.22-14.577-13.909-26.846-13.909-30 0-4.397 4.825-8.746 9.7-8.746 5.346 0 7.44 1.794 13.146 11.266 10.442 17.336 16.154 29.436 16.154 34.223 0 4.125-.344 4.747-4.15 7.504-4.403 3.19-5.142 3.368-8.431 2.038zM81.712 86.448c-1.618-1.36-4.213-4.904-5.768-7.874l-2.827-5.4-6.784-.63c-3.73-.347-9.285-1.567-12.343-2.71-7.689-2.878-16.55-11.254-20.594-19.47-2.98-6.054-3.116-6.84-2.703-15.658.529-11.263 2.49-15.628 10.726-23.863C50.196 2.066 53.986.466 66 .469c9.044.001 10.52.273 15.453 2.848 6.73 3.511 14.989 11.817 18.162 18.263 2.01 4.082 2.382 6.334 2.37 14.343-.014 8.466-.325 10.098-2.858 15-1.564 3.025-3.936 6.666-5.272 8.092l-2.428 2.593 3.536 7.379c1.945 4.059 3.536 8.202 3.536 9.207 0 3.14-2.908 7.63-5.967 9.212-4.193 2.168-7.447 1.88-10.82-.958zm-7.213-37.277c9.655-4.823 9.328-22.706-.49-26.809-7.123-2.976-16.754-1.048-20.074 4.018-4.341 6.626-3.339 16.665 2.145 21.48 3.023 2.653 4.253 3.062 9.204 3.061 3.437 0 7.11-.698 9.215-1.75z"/></symbol><symbol viewBox="0 0 583.855 220.062" id="icons--section_4--1" xmlns="http://www.w3.org/2000/svg"><path d="M396.722 218.812c.288-.688 21.68-50.075 47.538-109.75L491.275.562 503.967.28l12.69-.28-.496 2.28c-.38 1.744-60.628 141.453-89.926 208.532l-4.04 9.25h-12.998c-10.01 0-12.878-.288-12.475-1.25zM47.665 216.01c-5.637-.503-14.412-1.787-19.5-2.853-8.552-1.792-24.38-6.953-27.65-9.015-1.147-.724-.534-3.365 3.42-14.732 2.65-7.617 4.912-13.982 5.027-14.145.115-.163 5.394 1.088 11.732 2.78 16.634 4.439 26.805 6.015 38.719 6 28.313-.037 43.455-11.22 44.778-33.07 1.01-16.66-6.312-28.13-21.685-33.97-12.44-4.728-27.149-4.34-42.634 1.127l-8.515 3.005-10.56-5.757-10.56-5.756.56-5.032c.308-2.767 1.95-23.481 3.647-46.031 1.697-22.55 3.293-42.013 3.546-43.25l.461-2.25h118.962v49h-33v-21H52.504l-.51 3.25c-.28 1.787-.985 10.225-1.566 18.75-.582 8.525-1.307 17.58-1.613 20.123l-.555 4.623 5.327-1.538c3.826-1.104 9.973-1.54 21.826-1.544 13.872-.006 17.765.34 24.442 2.172 24.966 6.852 41.24 23 46.047 45.692 1.881 8.884 1.89 22.983.02 31.972-1.982 9.522-8.573 22.257-14.959 28.903-9.76 10.158-24.228 17.602-40.877 21.033-9.817 2.023-29.023 2.708-42.421 1.513zm175.248-1.456c-34.33-7.038-53.894-30.22-60.003-71.096-1.933-12.934-2.22-41.89-.54-54.397 3.446-25.662 13.93-48.622 27.962-61.238 6.351-5.71 18.415-12.007 28.638-14.947 6.796-1.955 10.254-2.285 23.943-2.281 18.832.004 24.292 1.155 38.432 8.1 13.877 6.817 22.048 15.276 29.454 30.493 9.61 19.747 12.599 34.923 12.608 64.023.007 22.141-2.04 36.3-7.426 51.372-9.228 25.817-26.433 42.683-50.068 49.082-8.392 2.272-33.703 2.795-43 .89zm33.936-32.918c16.475-8.06 23.558-28.682 23.554-68.575-.003-27.033-2.15-40.308-8.656-53.5-10.863-22.028-39.721-24.688-54.524-5.027-10.014 13.301-14.547 39.782-12.697 74.168 1.803 33.524 10.968 50.642 29.621 55.33 6.581 1.653 16.582.598 22.702-2.396zm257.827 31.91c-18.813-4.087-31.775-18.727-35.894-40.54-2.315-12.26-1.48-35.806 1.613-45.445 3.264-10.173 6.564-16.14 12.255-22.157 9.678-10.233 24.201-15.02 42.666-14.063 25.715 1.334 39.8 12.701 46.737 37.72 1.41 5.088 1.802 10.193 1.802 23.5 0 18.71-1.082 24.692-6.55 36.198-6.092 12.822-18.936 22.736-32.779 25.303-7.411 1.374-22.339 1.116-29.85-.516zm25.371-23.404c4.27-2.603 7.748-7.506 9.99-14.081 1.554-4.555 1.876-8.508 1.876-23 0-19.04-1.167-25.037-6.177-31.751-8.277-11.092-26.16-8.63-32.314 4.449-7.892 16.775-5.954 52.447 3.322 61.137 5.84 5.47 17.087 7.037 23.303 3.246zM364.824 133.64c-13.98-3.187-25.816-12.58-31.416-24.93-4.786-10.555-6.294-20.61-5.778-38.526.394-13.688.788-16.614 3.182-23.623 3.245-9.503 6.524-15.377 11.75-21.047 12.504-13.565 41.214-18.37 62.072-10.387 12.304 4.708 21.516 15.26 26.395 30.232 2.293 7.035 2.74 10.413 3.143 23.752.361 11.961.093 17.386-1.164 23.5-1.808 8.795-6.998 20.645-11.57 26.419-3.958 4.996-12.156 10.504-19.525 13.116-7.77 2.754-27.987 3.568-37.09 1.494zm23.905-22.7c4.36-2.235 8.732-7.391 10.678-12.594 5.256-14.046 4.615-40.584-1.284-53.166-5.628-12.008-23.145-13.71-32.058-3.117-3.904 4.64-6.7 14.937-7.33 26.998-1.157 22.19 3.647 37.352 13.178 41.588 3.684 1.637 13.847 1.814 16.816.292z"/></symbol><symbol viewBox="0 0 425.319 467.122" id="icons--section_5--1" xmlns="http://www.w3.org/2000/svg"><path d="M297.78 465.142c-17.343-4.984-29.971-17.1-36.21-34.742l-2.79-7.892v-37.5c0-41.003.252-43.368 5.864-55 3.952-8.19 13.944-18.424 22.218-22.754 11.379-5.956 13.957-6.246 55.59-6.246 37.048 0 37.893.045 45.284 2.392 9.366 2.974 15.679 6.971 22.798 14.435 6.565 6.883 11.377 15.942 13.308 25.051 1.761 8.31 2.033 71.523.347 80.689-3.652 19.853-19.56 36.722-39.54 41.925-9.039 2.355-78.424 2.068-86.869-.358zm51.51-23.384c7.02-4.778 7.456-6.13 7.807-24.236l.316-16.347 16.863-.334c18.68-.369 19.956-.772 24.754-7.823 4.518-6.637 2.315-15.94-5.07-21.418-2.55-1.891-4.438-2.124-19.685-2.425l-16.865-.333-.315-16.847c-.285-15.247-.513-17.115-2.407-19.667-7.28-9.814-19.535-9.814-26.816 0-1.894 2.553-2.122 4.42-2.408 19.75l-.315 16.93h-14.967c-16.594 0-19.47.7-24.402 5.943-2.716 2.887-3 3.821-3 9.873 0 7.895 1.807 11.068 8.066 14.17 3.534 1.751 6.042 2.014 19.183 2.014h15.117l.317 16.43c.286 14.821.522 16.707 2.41 19.25 3.55 4.785 8.193 7.32 13.407 7.32 3.233 0 5.739-.704 8.01-2.25zm-212.01-42.774c-43.598-3.273-89.021-11.143-124.46-21.562L0 373.652l.685-13.072c2.05-39.128 11.27-76.038 26.998-108.072 13.522-27.542 27.764-46.687 50.033-67.258l7.936-7.33 8.564 8.458c19.185 18.949 41.621 30.533 67.488 34.846 10.199 1.7 31.42 1.4 41.786-.592 24.384-4.685 46.37-16.278 64.05-33.773l8.825-8.733 6.708 5.775c27.297 23.506 50.12 58.71 63.765 98.357l2.323 6.75H326.18c-27.333 0-34.454 1.125-46.399 7.327-15.122 7.853-26.335 21.89-30.503 38.184-1.752 6.854-1.997 11.095-1.997 34.68 0 20.6-.291 26.973-1.25 27.304-7.026 2.43-85.56 4.222-108.75 2.481zm29.5-200.006c-8.294-1.28-21.731-5.54-29.515-9.357-21.085-10.337-39.324-29.463-48.021-50.356-6.22-14.938-7.352-21.076-7.335-39.757.015-15.596.24-17.743 2.733-26 5.19-17.188 12.385-29.936 23.63-41.866C137.258.884 181.238-8.388 220.537 7.972c25.337 10.547 47.022 34.38 55.538 61.036 3.728 11.67 4.657 18.194 4.56 32-.077 11.055-.555 15.243-2.634 23.12-4.818 18.244-12.054 31.021-25.502 45.024-13.47 14.027-28.33 22.701-47.1 27.494-10.869 2.775-28.759 3.855-38.62 2.332z"/></symbol><symbol viewBox="0 0 190 190" id="icons--section_8--1" xmlns="http://www.w3.org/2000/svg"><path d="M0 95V0h190v190H0V95zm84.714 17.743c3.97-2.683 8.74-9.2 7.822-10.684-1.372-2.22-8.886-1.124-13.436 1.96-4.977 3.372-6.944 3.63-11.133 1.464-7.44-3.847-7.873-15.934-.75-20.922 3.335-2.336 6.982-1.9 11.883 1.42 4.577 3.102 12.067 4.176 13.455 1.93 1.106-1.79-5.036-9.24-9.61-11.659-5.718-3.023-14.614-3.075-20.72-.12-13.915 6.737-14.87 26.409-1.768 36.403 6.206 4.734 17.42 4.83 24.257.208zM23 113c1.958-2.75 2.626-3 8-3 5.374 0 6.042.25 8 3 1.816 2.55 2.792 3 6.51 3 2.404 0 4.637-.429 4.96-.953.325-.524-2.866-9.749-7.09-20.5L35.698 75h-9.372L18.61 94.51c-4.243 10.731-7.44 19.956-7.104 20.5.337.545 2.58.99 4.985.99 3.717 0 4.693-.45 6.509-3zm4.715-12.75c-.22-.412.368-3.225 1.31-6.25l1.711-5.5 1.564 3.555c.86 1.956 1.869 4.768 2.24 6.25.64 2.547.482 2.695-2.873 2.695-1.952 0-3.73-.338-3.952-.75zm101.641 12.739c4.268-2.89 9.133-9.39 8.18-10.93-1.372-2.22-8.886-1.124-13.436 1.96-4.977 3.372-6.944 3.63-11.133 1.464-9.275-4.796-7.085-20.473 3.087-22.095 2.75-.438 4.355.07 7.946 2.513 4.672 3.18 12.147 4.288 13.555 2.01 1.111-1.798-5.044-9.242-9.703-11.735-6.05-3.236-16.79-2.832-22.208.835-7.277 4.926-10.878 13.595-9.251 22.27 1.003 5.347 6.14 12.272 10.894 14.686 5.995 3.043 16.838 2.563 22.069-.978zm20.849.261c1.215-2.542 1.82-2.772 8.006-3.045 6.586-.29 6.717-.245 8.292 2.8 1.516 2.933 1.874 3.08 6.799 2.795 3.997-.23 5.125-.647 4.88-1.8-.174-.825-3.734-10.162-7.912-20.75L162.674 74h-8.504l-8.085 20.347c-4.447 11.191-8.085 20.641-8.085 21 0 .36 2.45.653 5.445.653 4.956 0 5.564-.248 6.76-2.75zM155 99.904c0-.603.742-3.64 1.649-6.75l1.649-5.654 1.869 5.482c1.028 3.015 1.65 6.053 1.382 6.75-.594 1.55-6.549 1.706-6.549.172z"/></symbol><symbol viewBox="0 0 197.212 197.216" id="svg--logo" xmlns="http://www.w3.org/2000/svg"><path d="M85.64 196.35c-8.982-1.109-26.371-6.73-34-10.99C5.32 159.494-12.92 103.301 9.65 56.01c25.61-53.654 93.499-72.584 143.157-39.916 9.385 6.174 22.1 18.888 28.273 28.273 25 38.002 20.574 88.354-10.706 121.793-11.287 12.065-24.357 20.326-40.734 25.747-15.428 5.106-28.189 6.395-44 4.443zm39-11.293c15.41-5 25.172-10.763 36.36-21.462 11.71-11.197 18.93-22.879 24.142-39.061 2.173-6.747 2.841-11.079 3.24-21 .694-17.258.536-17.636-4.139-9.925-14.185 23.394-35.338 44.351-55.104 54.593-13.437 6.963-20.998 8.837-35.5 8.8-13.867-.037-20.467-1.697-29.96-7.539l-4.951-3.046-9.553 3.578c-5.254 1.968-11.8 4.096-14.545 4.73-2.745.634-4.99 1.451-4.99 1.816 0 1.158 13.313 13.49 18 16.671 16.649 11.306 31.447 15.439 53.5 14.942 13.09-.296 16.08-.69 23.5-3.097zm-15.065-40.11c24.549-5.937 53.581-31.17 71.033-61.739l5.104-8.939-1.676-5.118c-4.23-12.92-12.29-25.403-23.035-35.679-11.227-10.735-22.974-17.569-37.898-22.046-10.025-3.008-31.185-3.73-42.553-1.454-9.03 1.809-20.574 6.364-29.73 11.731-7.325 4.295-24.717 21.686-29.011 29.012C11.653 68.04 8.143 82.1 8.896 102.445c.555 15.01 2.156 21.688 8.473 35.339 3.225 6.97 3.867 7.75 6.39 7.75 3.179 0 17.451-3.221 23.192-5.234l3.81-1.337-3.161-3.965c-9.742-12.213-14.7-32.39-12.082-49.167 4.495-28.797 26.37-55.777 51.442-63.448 10.256-3.138 22.14-2.373 31.014 1.995 20.822 10.25 25.476 36.131 11.116 61.81-9.522 17.027-32.857 39.632-52.2 50.569-2.888 1.632-5.25 3.314-5.25 3.736 0 .8 5.96 3.232 12 4.896 5.517 1.52 18.752 1.294 25.935-.443zm-41.157-13.31c24.855-12.587 49.569-37.103 57.354-56.896 1.8-4.577 2.258-7.787 2.306-16.207.054-9.18-.244-11.116-2.367-15.395-2.932-5.91-7.658-10.81-13.348-13.841-3.478-1.853-5.817-2.251-13.245-2.257-8.156-.007-9.651.303-15.592 3.228-11.484 5.653-20.434 15.358-27.912 30.265-10.845 21.62-12.45 42.106-4.581 58.5 2.863 5.964 9.76 15.5 11.213 15.5.247 0 3.025-1.304 6.172-2.898z"/></symbol></svg>